<?xml version="1.0" encoding="UTF-8" standalone="no"?>
<svg
   width="104"
   height="136"
   fill="none"
   version="1.1"
   id="svg51"
   sodipodi:docname="svg.svg"
   inkscape:version="1.1.2 (b8e25be833, 2022-02-05)"
   xmlns:inkscape="http://www.inkscape.org/namespaces/inkscape"
   xmlns:sodipodi="http://sodipodi.sourceforge.net/DTD/sodipodi-0.dtd"
   xmlns="http://www.w3.org/2000/svg"
   xmlns:svg="http://www.w3.org/2000/svg">
  <defs
     id="defs55" />
  <sodipodi:namedview
     id="namedview53"
     pagecolor="#505050"
     bordercolor="#eeeeee"
     borderopacity="1"
     inkscape:pageshadow="0"
     inkscape:pageopacity="0"
     inkscape:pagecheckerboard="0"
     showgrid="false"
     showguides="true"
     inkscape:zoom="8"
     inkscape:cx="57.5625"
     inkscape:cy="70.6875"
     inkscape:window-width="2400"
     inkscape:window-height="1321"
     inkscape:window-x="2391"
     inkscape:window-y="-9"
     inkscape:window-maximized="1"
     inkscape:current-layer="g49">
    <inkscape:grid
       type="xygrid"
       id="grid7231" />
  </sodipodi:namedview>
  <g
     id="g49"
     transform="translate(-0.10029,6)">
    <title
       id="title33">Layer 1</title>
    <path
       d="m 0.10029,39 26,-15 V -6 l -26,15 z"
       fill="#e5562c"
       id="svg_9"
       stroke="null"
       style="stroke-width:1.01788"
       sodipodi:nodetypes="ccccc" />
    <path
       d="m 52.10029,39 -26,-15 V -5.9999999 l 26,15 z"
       fill="#e5562c"
       id="svg_9-2"
       stroke="null"
       style="fill:#464cf8;fill-opacity:1;stroke-width:1.018;stroke-miterlimit:4;stroke-dasharray:none"
       sodipodi:nodetypes="ccccc" />
    <path
       stroke="null"
       d="M 26.100309,24.00001 52.10029,39 l -26,15 -26,-15 26,-15 9e-6,10e-6 z"
       fill="#c3deff"
       id="svg_11"
       style="stroke-width:1.00568"
       sodipodi:nodetypes="ccccccc" />
    <path
       d="m 52.10029,39 26,-15 V -5.9999999 l -26,15 z"
       fill="#e5562c"
       id="svg_9-1"
       stroke="null"
       style="stroke-width:1.01788"
       sodipodi:nodetypes="ccccc" />
    <path
       d="m 104.10029,39 -26,-15 V -5.9999998 l 26,14.9999999 z"
       fill="#e5562c"
       id="svg_9-2-1"
       stroke="null"
       style="fill:#464cf8;fill-opacity:1;stroke-width:1.018;stroke-miterlimit:4;stroke-dasharray:none"
       sodipodi:nodetypes="ccccc" />
    <path
       stroke="null"
       d="M 78.100309,24.00001 104.10029,39 l -26,15 -26,-15 26,-15 9e-6,10e-6 z"
       fill="#c3deff"
       id="svg_11-8"
       style="stroke-width:1.00568"
       sodipodi:nodetypes="ccccccc" />
    <path
       stroke="null"
       d="m 52.10029,39 25.999982,14.99999 -26.000001,15 -26,-15 26,-15 9e-6,1e-5 z"
       fill="#c3deff"
       id="svg_11-8-0"
       style="stroke-width:1.00568"
       sodipodi:nodetypes="ccccccc" />
    <path
       d="m 0.100268,98.99999 26,-15 v -30 l -26,15 z"
       fill="#e5562c"
       id="svg_9-11"
       stroke="null"
       style="stroke-width:1.01788"
       sodipodi:nodetypes="ccccc" />
    <path
       d="m 52.100271,98.99999 -26.000003,-15 v -30 l 26.000003,15 z"
       fill="#e5562c"
       id="svg_9-2-6"
       stroke="null"
       style="fill:#464cf8;fill-opacity:1;stroke-width:1.018;stroke-miterlimit:4;stroke-dasharray:none"
       sodipodi:nodetypes="ccccc" />
    <path
       stroke="null"
       d="m 26.100287,84 25.999984,14.99999 -26.000003,15 -26,-15 26,-15 9e-6,1e-5 z"
       fill="#c3deff"
       id="svg_11-1"
       style="stroke-width:1.00568"
       sodipodi:nodetypes="ccccccc" />
    <path
       d="m 52.100271,98.99999 26,-15 v -30 l -26,15 z"
       fill="#e5562c"
       id="svg_9-1-0"
       stroke="null"
       style="stroke-width:1.01788"
       sodipodi:nodetypes="ccccc" />
    <path
       d="m 104.10027,98.99999 -25.999999,-15 v -30 l 25.999999,15 z"
       fill="#e5562c"
       id="svg_9-2-1-7"
       stroke="null"
       style="fill:#464cf8;fill-opacity:1;stroke-width:1.018;stroke-miterlimit:4;stroke-dasharray:none"
       sodipodi:nodetypes="ccccc" />
    <path
       stroke="null"
       d="m 78.100291,84 25.999979,14.99999 -25.999999,15 -26,-15 26,-15 10e-6,1e-5 z"
       fill="#c3deff"
       id="svg_11-8-9"
       style="stroke-width:1.00568"
       sodipodi:nodetypes="ccccccc" />
    <path
       stroke="null"
       d="m 52.100271,98.99999 25.99998,14.99999 -26,15 -26.000002,-15 26.000002,-15 1e-5,1e-5 z"
       fill="#c3deff"
       id="svg_11-8-0-6"
       style="stroke-width:1.00568"
       sodipodi:nodetypes="ccccccc" />
  </g>
</svg>
